<?xml version="1.0" encoding="utf-8"?>
<!-- Generator: Adobe Illustrator 18.1.0, SVG Export Plug-In . SVG Version: 6.00 Build 0)  -->
<svg version="1.1" id="Layer_1" xmlns="http://www.w3.org/2000/svg" xmlns:xlink="http://www.w3.org/1999/xlink" x="0px" y="0px"
	 viewBox="0 0 1500 1500" enable-background="new 0 0 1500 1500" xml:space="preserve">
<g>
	<path fill="none" d="M410.1,243.1c0.5,0.2,1.1,0.4,1.6,0.7c0.2,0.1,0.3,0.1,0.5,0.2C411.5,243.7,410.8,243.4,410.1,243.1z"/>
	<path fill="none" d="M740.6,494.3c-2.6,0.7-5.3,1.4-8.1,2.3c-26,29.3-59.7,61.2-90.6,86.2C677,554.6,713.3,524.7,740.6,494.3z"/>
	<path fill="none" d="M237.7,951.7c10.6-10.8,21-22.5,31.8-33.9C258.5,928.7,247.6,940,237.7,951.7z"/>
	<path fill="none" d="M520.2,712.5C464.7,747.9,412.5,798,350.3,842c-16.5,11.4-36.1,29.9-56.7,50.6c-6.7,4.4-9.2,7.9-11,11.4
		l-13.2,13.7l12.4-12.2c-1.8,3.8-3.6,8.1-9.7,14C350,846.8,438.2,780.6,525.8,714C531.1,707.7,533,703.9,520.2,712.5z"/>
	<path fill="none" d="M525.8,714c-4.3,5.2-10.9,12-13.4,15.2l23.3-22.9L525.8,714z"/>
	<path fill="none" d="M618.5,639.4c-7.6,7.4-14.3,14.7-19.8,21.7c68.2-56.8,154.1-115.8,190.8-191.9
		c-25.3,48.7-79.5,89.8-124.9,129.2l6-5.6l-12.2,10.7c-21.7,17.6-43.9,34.9-66.4,52.2c-19.8,16-38.2,33-56.2,50.5
		C563.8,684.5,591.6,662.3,618.5,639.4z"/>
	<path fill="none" d="M368.4,1297.3c-17.8,5.8-35.4,10.6-52,14.3c13.1,0.6,26.7-0.6,40.4-2.9
		C360.9,1305.5,364.8,1301.7,368.4,1297.3z"/>
	<path fill="none" d="M793,461.9c-1,2.2-2,4.5-3.1,6.7C790.9,466.4,792,464.2,793,461.9z"/>
	<path fill="none" d="M752.1,491.6c-1.8,0.3-4,0.8-6.3,1.4c-8.9,11-20,22.4-32.6,34.1c12.5-7.9,27.5-20.9,40.9-35.4
		C753.5,491.6,752.9,491.5,752.1,491.6z"/>
	<path fill="none" d="M753.1,483.3c1.9,0.1,3.5-1.1,5.8-6.4c-0.3-0.1-0.7-0.3-1.2-0.4C756.2,478.8,754.7,481.1,753.1,483.3z"/>
	<path fill="none" d="M427.5,250.4c-0.4,0.7-0.8,1.6-1.1,2.7c0.3-0.5,0.5-0.8,0.8-1.2c0.2-0.6,0.4-1.2,0.6-1.7
		C427.7,250.3,427.6,250.3,427.5,250.4z"/>
	<path fill="none" d="M755.5,476.2c-1.5-0.2-3.4-0.4-5.8-0.3c-1.5,1.8-3,3.7-4.5,5.6c2.1,0.2,3.7,0.8,5.1,1.2
		C752.1,480.5,753.9,478.3,755.5,476.2z"/>
	<path fill="none" d="M1362,295.1c-11.1,3.7-651.5,614.5-651.5,614.5c-1.8,11.1,29.6-1.8,138.8-92.5
		c109.2-90.7,488.6-470.1,505.3-492.3S1373.1,291.4,1362,295.1z"/>
	<path fill="none" d="M381.3,228.7C381.3,228.8,381.3,228.8,381.3,228.7c0.1,0.2,0.4,0.3,0.7,0.4C381.7,229,381.5,228.9,381.3,228.7
		z"/>
	<path fill="none" d="M381.3,228.7c0.1-0.1,0.1-0.2,0.2-0.2c0,0,0,0,0,0C381.5,228.5,381.4,228.5,381.3,228.7
		C381.3,228.7,381.3,228.7,381.3,228.7z"/>
	<path fill="none" d="M382.1,230.4c-0.6-0.5-0.9-0.8-1.2-1.1c-1.6,2.3-5.2,7.2-9.7,12.1c-10.1,11.4-22.4,23.7-35.1,35.9
		C354.2,259.9,374.1,240.7,382.1,230.4z"/>
	<path fill="none" d="M398.2,237.6c0.7,0.3,1.4,0.6,2.1,0.9c-0.7-0.4-1.5-0.7-2.2-1.1c-0.9-0.4-1.7-0.7-2.4-1
		C396.6,236.8,397.4,237.2,398.2,237.6z"/>
	<path fill="none" d="M161.4,509.9c-0.1,0.1-0.2,0.2-0.3,0.3c0.3-0.1,0.7-0.3,1-0.5C161.9,509.8,161.6,509.8,161.4,509.9z"/>
	<path fill="none" d="M384.9,603.8c53.6-18.9,96.5-36,146.2-57.4c-33.2,14.2-66.4,29-100,43.9c82.4-36.1,174.2-76.5,259.4-104.8
		c0.7-0.6,1.3-1.3,2-1.9c-22.1,5-45.2,11.6-68.4,18.9c-61,19.7-122.9,44.2-184.5,70.7C433.8,582,399,593.2,384.9,603.8z"/>
	<path fill="none" d="M428.5,246.9c0.1,0,0.2-0.1,0.3-0.1c0.1-0.2,0.1-0.5,0.1-0.6c-0.2,0-0.7,0.2-1,0.2c-0.1,0.1-0.3,0.3-0.4,0.4
		C427.9,246.8,428.3,246.8,428.5,246.9z"/>
	<path fill="none" d="M408.3,242.3c0.1,0,0.2,0.1,0.3,0.1c-0.2-0.1-0.4-0.3-0.7-0.4c-0.2-0.1-0.3-0.2-0.5-0.2
		C407.7,242,408,242.2,408.3,242.3z"/>
	<path fill="none" d="M427.2,247.1c0.1-0.1,0.2-0.2,0.3-0.3c-0.3,0-0.6,0-1-0.1c-0.4,0.1-0.5,0.1-1,0.2
		C426.2,247.1,426.7,247.2,427.2,247.1z"/>
	<path fill="none" d="M425.5,247C425.5,246.9,425.5,246.9,425.5,247c-0.2-0.1-0.6-0.2-0.9-0.4c0,0-0.1,0-0.1,0
		c-1.5,0-2.9-0.2-4.3-0.4C422.3,246.5,424.2,246.8,425.5,247z"/>
	<path fill="none" d="M420.2,246.1c-0.9-0.2-1.9-0.4-2.8-0.6c-0.2,0-0.4-0.1-0.6-0.1C417.9,245.7,419,245.9,420.2,246.1z"/>
	<path fill="none" d="M414.4,244.8c-0.4-0.1-0.8-0.3-1.3-0.5c-0.3-0.1-0.6-0.2-0.9-0.3C412.9,244.2,413.6,244.6,414.4,244.8z"/>
	<path fill="none" d="M763.6,458.6c-0.5,1.5-1.1,3.1-1.8,4.9c-0.2,1.1-0.4,2.1-0.5,3.1C762,464.1,762.8,461.4,763.6,458.6z"/>
	<path fill="none" d="M761.3,466.6c-0.2,0.8-0.4,1.6-0.7,2.4c0.1-0.1,0.2-0.3,0.3-0.4C761,467.9,761.2,467.2,761.3,466.6z"/>
	<path fill="none" d="M763.2,465.2c-0.7,1.1-1.6,2.2-2.3,3.3c-0.2,1.3-0.4,2.4-0.6,3.6c0.4-0.7,0.9-1.5,1.3-2.2
		C762.1,468.5,762.7,466.9,763.2,465.2z"/>
	<path fill="none" d="M769,447.6c0.3-1,0.6-2,1-3c-0.5,0.4-0.9,0.7-1.5,1.2c-1,2.2-2,4.7-3.2,8.2C766.7,451.8,767.9,449.6,769,447.6
		z"/>
	<path fill="none" d="M765.3,453.9c-0.1,0.2-0.2,0.4-0.3,0.6c-0.5,1.4-0.9,2.7-1.3,4.1C764.3,456.9,764.8,455.3,765.3,453.9z"/>
	<path fill="none" d="M760.3,472.1c-0.3,0.5-0.6,0.9-0.8,1.4c-0.5,2-0.7,3.2-0.6,3.4c0.3-0.7,0.6-1.6,1-2.4
		C760,473.8,760.1,472.9,760.3,472.1z"/>
	<path fill="none" d="M798.6,447.7c7.5-43.1-57.1-42.1-98.9-31.6c-45.8,9.7-90.7,24.6-135,40.9c49.2-13,100.2-29.4,151.8-38
		C754.4,409.3,803.8,411.3,798.6,447.7z"/>
	<path fill="none" d="M769.2,447.2c-0.1,0.1-0.1,0.2-0.2,0.3c-2.3,7.2-4.2,13-5.8,17.7c0.7-1,1.5-2.1,2.2-3.1
		C767.8,456.4,769.2,451.1,769.2,447.2z"/>
	<path fill="none" d="M771,441.4c0,0,0-0.1,0-0.1c-0.3,0.1-0.7,0.6-1.1,1.2c0.1,0,0.2,0,0.4-0.1C770.5,442.1,770.8,441.7,771,441.4z
		"/>
	<path fill="none" d="M770.3,442.4c0.1,0,0.3,0,0.4-0.1c0.1-0.3,0.2-0.5,0.2-0.7C770.8,441.8,770.5,442.1,770.3,442.4z"/>
	<path fill="none" d="M771,441.4c0,0.1,0,0.1-0.1,0.2c0.5-0.6,0.8-1.1,1.2-1.5c0,0-0.1-0.1-0.1-0.1l-0.3,0.3
		C771.5,440.7,771.3,441,771,441.4z"/>
	<path fill="none" d="M770.3,442.4C770.3,442.4,770.3,442.4,770.3,442.4C770.3,442.4,770.3,442.4,770.3,442.4
		C770.3,442.4,770.3,442.4,770.3,442.4z"/>
	<path fill="#FFAF3A" d="M263,352.7c25.8-21.6,51.6-43,76.1-64.7c12.1-10.8,24.1-21.8,34.8-32.5c5.2-5.3,10.1-10.6,14-15.4
		c1.6-2,3.4-4.4,3.9-5.3c0-0.2-1.3-0.7,2.6,1c1.3,0.6,2.6,1.2,3.9,1.8c-0.8-0.4-1.6-0.8-2.5-1.2c0.7,0.3,1.5,0.6,2.4,1
		c-6.7-3.4-12.7-6.6-15.7-8.1c-0.3-0.2-0.8,0.8-1.1,0.6c0-0.1,0.1,1,0.2,1c0,0,0,0,0,0c0,0-0.1-1.1-0.2-1c0,0,0-0.7-0.1-0.7
		c0.2-0.2,0.2-0.5,0.2-0.5c-1.2-0.5-1.1-0.5-0.2,0.1c0,0,0,0-0.1,0c-1.1-0.4-1.2-0.3-0.4,0.5c-0.4,0.5-0.7,1-0.9,1.3
		c-3.6,4.9-10.5,12.8-17.9,20.4c-15,15.4-32.5,31.7-50.2,48.1c-35.8,33-73.7,67.1-110,104.1c-26.7,27-64.9,35.9-92.3,93.2
		C158.9,437.3,211.2,397.1,263,352.7z M381.3,228.7c0.2,0.1,0.4,0.3,0.7,0.4C381.7,229,381.4,228.9,381.3,228.7
		C381.3,228.8,381.3,228.8,381.3,228.7z M371.2,241.5c4.6-4.9,8.2-9.8,9.7-12.1c0.3,0.3,0.6,0.6,1.2,1.1c-8,10.3-28,29.5-46.1,47
		C348.7,265.2,361.1,252.9,371.2,241.5z"/>
	<path fill="#FFAF3A" d="M417.2,289.9c-12.6,1-26.5,1.6-35.4,4c14,0.7,30.8,0.6,40.3,1c-0.2-1.7-0.4-3.3-0.5-5
		C420.8,289.8,419.2,288.9,417.2,289.9z"/>
	<path fill="#FFAF3A" d="M421.6,289.9c0.8,0.1,0.9-0.5,0-3.8c0.8-10.1,1.7-18.3,2.6-24.2C422.4,269.4,420.9,279.2,421.6,289.9z"/>
	<path fill="#FFAF3A" d="M427.5,250.4c-1.6,2.4-3.1,6-3.2,10.7c0,0.2-0.1,0.5-0.1,0.7c0-0.1,0.1-0.3,0.1-0.4c0,0.8-0.1,1.6,0,2.5
		c0.1-1.5,0.2-2.8,0.4-4c0.8-3.1,1.7-5.8,2.4-8c-0.2,0.4-0.5,0.8-0.8,1.2C426.8,252.1,427.2,251.2,427.5,250.4z"/>
	<path fill="#FFAF3A" d="M424.5,246.5c-1.8-0.2-4.1-0.5-7.1-1c1,0.2,1.9,0.4,2.8,0.6C421.6,246.3,423,246.5,424.5,246.5z"/>
	<path fill="#FFAF3A" d="M428.5,246.9c0.1,0,0.2,0,0.3,0c-0.2,0.7-0.5,1.7-1,3c-0.1,0.2-0.2,0.4-0.3,0.5c0.1-0.1,0.1-0.2,0.2-0.3
		c-0.2,0.5-0.4,1.1-0.6,1.7c1.5-2.4,2.3-3.9,2.7-4.6c0.9-1.1,1-1.5-0.9-1.1c0,0.2-0.1,0.4-0.1,0.6
		C428.7,246.8,428.6,246.8,428.5,246.9z"/>
	<path fill="#FFAF3A" d="M426.6,246.7c-0.6,0-1.2-0.1-2-0.2c0.3,0.2,0.7,0.3,1,0.4C426,246.8,426.2,246.8,426.6,246.7z"/>
	<path fill="#FFAF3A" d="M412.2,244c-0.2-0.1-0.3-0.1-0.5-0.2c7,2.9,13,4.8,15.5,3.4c0,0,0.1-0.1,0.1-0.1c-0.5,0.1-1.1,0-1.7-0.2
		c0,0,0,0-0.1,0c-1.2-0.2-3.2-0.5-5.3-0.9c-1.2-0.2-2.3-0.4-3.4-0.7c0.2,0,0.4,0.1,0.6,0.1c-0.4-0.1-0.7-0.1-1.1-0.2
		c-0.3-0.1-0.6-0.1-0.9-0.2c-0.8-0.2-1.5-0.5-2.3-0.8c0.5,0.2,0.9,0.4,1.3,0.5C413.6,244.6,412.9,244.2,412.2,244z"/>
	<path fill="#FFAF3A" d="M428,246.4c-0.4,0.1-0.9,0.2-1.4,0.3c0.4,0,0.7,0.1,1,0.1C427.7,246.6,427.8,246.5,428,246.4z"/>
	<path fill="#FFAF3A" d="M428,246.4c0.3-0.1,0.7-0.2,1-0.2C429,245.6,428.7,245.7,428,246.4z"/>
	<path fill="#FFAF3A" d="M424.6,246.5c0,0-0.1,0-0.1,0C424.5,246.5,424.5,246.5,424.6,246.5C424.6,246.5,424.6,246.5,424.6,246.5z"
		/>
	<path fill="#FFAF3A" d="M427.2,247.1c0.5-0.1,0.9-0.1,1.2-0.2c-0.2,0-0.5-0.1-0.9-0.1C427.5,246.9,427.4,247,427.2,247.1z"/>
	<path fill="#FFAF3A" d="M408.3,242.3c0.2,0.1,0.4,0.2,0.6,0.3c0.9,0.4,1.8,0.8,2.7,1.1c-0.5-0.2-1-0.4-1.6-0.7
		c0.7,0.3,1.4,0.6,2.1,0.8c0.3,0.1,0.6,0.2,0.9,0.3c-1.4-0.6-3.1-1.3-5.2-2.2c0.2,0.1,0.4,0.3,0.7,0.4
		C408.5,242.4,408.4,242.4,408.3,242.3z"/>
	<path fill="#FFAF3A" d="M398.2,237.6c1.5,0.7,2.9,1.4,4.3,2c1.9,0.9,3.8,1.8,5.7,2.7c-0.3-0.1-0.6-0.3-0.9-0.5
		c0.2,0.1,0.3,0.2,0.5,0.2c-1.1-0.6-2.2-1.1-3-1.8c-0.3-0.1-0.6-0.2-0.9-0.3c0,0-0.1,0-0.1-0.1c-2.4-1-4.2-1.8-5.8-2.4
		c0.7,0.4,1.5,0.7,2.2,1.1C399.7,238.2,398.9,237.9,398.2,237.6z"/>
	<path fill="#FFAF3A" d="M381.5,231C381.5,231,381.5,231,381.5,231C381.5,231,381.5,231,381.5,231z"/>
	<path fill="#FFAF3A" d="M240.1,252.4c-3.9-4.7-6.9-9.4-9.4-14.1C233.1,243.1,236.2,247.8,240.1,252.4z"/>
	<path fill="#FFAF3A" d="M332.3,578.5c-30.1,11.3-60.1,22.2-90.9,31.8c-33.1,7-56.8,24.3-107.8,11.4c-18.6-5.5-26.3-34.2-23.5-43.3
		c-6.4,8.4,4.4,44.8,24.9,48.7c17.7,6.7,28,4.4,39.2,4c21-2.5,39.1-7.9,56.9-13.7C266.6,605.6,299.7,591.1,332.3,578.5z"/>
	<path fill="#FFAF3A" d="M819.3,330c26.7,9.4,44.5,27.8,53.1,37.7c28.5,38.3,25.4,87.4,16.7,110.5c-8.4,25.6-19.1,39.8-29.2,53.9
		c-2.3,5.3-5,17.5-12.2,26.6c-14.8,18.5-28.7,33.3-42.3,47.7c26.1-26.6,52.3-51.1,76.5-99.3c10.3-22.9,26.8-65.5,4.1-118
		c-19.9-46.6-71.8-70.7-103.2-74.1C794.8,318.4,807.8,323.2,819.3,330z"/>
	<path fill="#FFAF3A" d="M371.2,1337.5c1.2-0.1,2.6-0.2,4.3-0.4C374,1337.2,372.6,1337.3,371.2,1337.5z"/>
	<path fill="#FFAF3A" d="M714.7,669.1c15-10.4,30.5-20.6,45.8-31.8c25.6-22.5,51.3-45.4,77.3-75.5c5.2-7.7,10.1-16.2,14.5-25.7
		c4.9-3,10.5-9.1,16.3-16.5c9-16.9,19.6-34,23.3-66.3c2.3-20.5-1.3-56-23.6-84.2c-16.7-24.8-57.2-46-83.7-48.7
		c-51-6.1-85.6,3.7-120.7,12.4c-4.9,2.8-8.7,5.1-11.1,5.4c-19.2,5.2-37,10.7-54,15.8c-57.3,21.5-106.6,44.3-133.7,57.8
		c-31.7,18.1,80.5-3.6,75.9,5.7c-29.3,36.7-98.4,54.7-184,104.2c-23.9,12.8,19.4-3.9,22-0.4c-2.9,3.5-6.9,7.3-11.8,11.3l-51.9,24.2
		l7.6-3c15.3-6.6,30.1-13.4,43.3-20.4c-14.6,11.7-35.5,24.7-51.4,36.5c135.8-48.1,265.5-117,401.8-150.8
		c-51.6,8.6-102.6,25-151.8,38c44.3-16.2,89.2-31.2,135-40.9c41.7-10.4,106.3-11.4,98.9,31.6c5.2-36.4-44.2-38.4-82-28.8
		c36-7,77.6-4.4,77.5,21.5c0.2,25.8-28.7,58.6-54,82.8c31.9-36.7,59.1-94,32.9-91.8c14,4.1,11.7,16.9-8.5,48.2
		c-2.3,2.8-4.7,5.6-7.1,8.4c0.6-2.5,1.3-6.6,2.5-13.5c-0.3,0.8-0.7,1.7-1,2.4c-0.1-0.2,0.1-1.4,0.6-3.4c0.3-0.5,0.6-0.9,0.8-1.4
		c0.2-1.1,0.4-2.3,0.6-3.6c-0.1,0.1-0.2,0.3-0.3,0.4c0.2-0.8,0.4-1.6,0.7-2.4c0.2-1,0.3-2,0.5-3.1c0.7-1.8,1.3-3.4,1.8-4.9
		c0.4-1.4,0.9-2.8,1.3-4.1c0.1-0.2,0.2-0.4,0.3-0.6c1.2-3.4,2.1-5.9,3.2-8.2c0.6-0.5,1.1-0.9,1.5-1.2c-0.3,1-0.6,2-1,3
		c0.1-0.1,0.1-0.2,0.2-0.3c0,3.8-1.4,9.2-3.8,14.8c6.6-14.5,8.6-18.4,8.4-20.1c0.7-0.4,0.7-0.4-0.1-0.2c-0.2-0.7-0.8-1-1.6-1.7
		c-0.4,0.5-0.7,0.9-1.2,1.5c-0.1,0.3-0.2,0.5-0.2,0.7c-0.1,0-0.3,0-0.4,0.1c0,0,0,0,0,0.1c0,0,0,0,0,0c-0.1,0-0.2,0-0.4,0.1
		c0.4-0.6,0.8-1.1,1.1-1.2c0,0,0,0.1,0,0.1c0.3-0.4,0.5-0.7,0.8-1.1l0.3-0.3c-0.1-0.1-0.2-0.2-0.3-0.3c-2.7-3.1-19.1-3.8-36.6-2.1
		c-5.6-1.5-9.9-2.8-8.4-2.6c0.2,0.3-0.7,2.3-1,3.7c0,0,0,0,0,0c-3.5,0.5-7,1.1-10.4,1.9c-49.4,9.7-100.4,28.4-150.1,47.8
		c44.9-7.4,108.2-39,158.5-45.9c-0.9,1.8-2,3.8-3.3,5.9c-88.7,18.7-194.7,67.8-292.5,108c-57.3,24.3-114,49.7-173.9,72.7
		c-33.4,9.8-53.9,25.6-111.1,24.2c-8.1-1.1-20.5-4.2-31.6-11.6c-14.5-10.4-23.7-24.6-26.6-39.3c-5-27.3,0.1-36.8,3.2-50.7
		c7.7-23.1,17.3-38.2,26.6-53.4c-13.4,21.4-33,37.6-37.2,89.8c-0.3,16.7,8.3,44.5,30.8,59.3c17.2,11.2,34.3,13.8,43,14
		c21.5,1.3,33.6-1.6,47-3.8c49.1-10.5,88.6-25.2,130-38.7c-15.4,5.2-32.6,13.1-50.1,20.4c56.9-21.4,107-42.6,161.9-66.8l-0.5,0.7
		c61.6-26.5,123.5-51,184.5-70.7c23.2-7.4,46.3-14,68.4-18.9c-0.6,0.6-1.3,1.3-2,1.9c-85.2,28.4-177,68.7-259.4,104.8
		c33.6-14.9,66.8-29.7,100-43.9c-49.7,21.4-92.6,38.5-146.2,57.4c14.1-10.6,48.8-21.8,54.6-30.6c-71.1,29.7-136.8,63.4-217.2,94
		c-46.4,18.6-92.4,16.8-75.2,23.7c20.5,7.9,56.1,6.3,77.1-0.2C390.9,635,520.2,573.7,645,527.1c-14.3,12.7-27.3,24.2-35.1,31.8
		C517.4,661,395.2,761.4,277.2,879.7c-54.3,52-109.5,109.5-150.2,183.5c-19.2,37.3-35,81.4-30.8,129.6
		c3.8,48.7,31.9,90.9,64.1,119.8c67.7,62.9,168.7,64.3,240.6,42.6c75.5-21.4,137.2-51.8,198.5-87.4
		c-52.3,27.7-138.5,74.9-196.1,78.3l15.8-10.8c-12.7-1-51.7,8-72.7,6.4c7.2-3.5,16-3.4,24.8-4.2c-6.1,0.6-7.7,0.4-16.3,0.4
		c15.3-2.1,32.8-6.8,50.8-12.8c-39.6,0.4-64.8-6.3-64.8-6.3c5.7-2.4,11-5.8,16-9.9c-13.7,2.3-27.3,3.5-40.4,2.9
		c16.6-3.7,34.1-8.5,52-14.3c5.6-6.7,10.7-14.6,15.5-23.6c-26.2,9.6-51.2,17.5-74.5,9.1l-7.3-0.1c-4.8,0.7-9.2,1.9-14.1,1.7
		c-20.9-4.3-23.2-9.7-44.2-15.9c0.3-1.1,1.4-1.5,2.8-1.6c-6.8-1.1-14.8-7.8-22-11.1c1-2,1.9-3.9,1.8-6.1
		c-39.7-36.1-40.8-66.8-21.1-114.2c6.8-14.1,15.1-28.2,24.9-42.3c8.2-12.3,16.7-25.1,27.8-37.5c5.2-6.4,6.6-14.8,8.3-18.6
		c16.6-14.5,33.5-28.6,53.6-45.8c2-3.7,8.1-9.9,12.7-17.1l14.6-7.4c24.7-22.6,50.3-44.5,76.3-66.2l-0.4-0.3
		c34.6-31.7,87.2-67,124.1-98.1l35.8-24.1c-2.8,0-4.5-1.4-6.2-2.8c-3,3.7-7.2,7.2-11.4,10.5c6.5-6.4,12.1-12.5,16.2-18.2
		c12.8-4.7,26.3-11.6,40.3-19.9c31.8-24.1,63.8-48.6,95.9-74.6C719.5,669.6,716,670,714.7,669.1z M793,461.9c-1,2.3-2.1,4.5-3.1,6.7
		C791,466.4,792,464.1,793,461.9z M713.2,527c12.7-11.7,23.7-23.1,32.6-34.1c2.3-0.5,4.5-1,6.3-1.4c0.8-0.1,1.4,0,1.9,0
		C740.7,506.1,725.7,519.1,713.2,527z M745.3,481.4c1.5-1.9,3-3.8,4.5-5.6c2.4,0,4.3,0.1,5.8,0.3c-1.6,2.2-3.5,4.3-5.2,6.5
		C749,482.2,747.4,481.7,745.3,481.4z M758.9,477c-2.3,5.3-3.9,6.5-5.8,6.4c1.6-2.3,3.2-4.5,4.6-6.8
		C758.2,476.7,758.6,476.8,758.9,477z M732.4,496.5c2.9-0.9,5.6-1.6,8.1-2.3c-27.2,30.5-63.5,60.4-98.8,88.4
		C672.7,557.7,706.5,525.8,732.4,496.5z M535.8,706.3l-23.3,22.9c2.5-3.2,9-10,13.4-15.2C438.2,780.6,350,846.8,272.2,919.6
		c6.2-5.9,7.9-10.2,9.7-14l-12.4,12.2c-10.7,11.4-21.2,23.1-31.8,33.9c9.8-11.7,20.7-23,31.8-33.9l13.2-13.7c1.8-3.5,4.3-7,11-11.4
		c20.5-20.7,40.2-39.2,56.7-50.6c62.2-44,114.4-94.1,169.9-129.5c12.8-8.6,10.8-4.8,5.6,1.5L535.8,706.3
		c18-17.5,36.4-34.6,56.2-50.5c22.4-17.3,44.7-34.6,66.4-52.2l12.2-10.7l-6,5.6c45.5-39.4,99.7-80.5,124.9-129.2
		c-36.6,76-122.5,135-190.8,191.9c5.5-7,12.2-14.3,19.8-21.7C591.6,662.3,563.8,684.5,535.8,706.3z"/>
	<path fill="#FFAF3A" d="M759.9,474.5c0.5-1.3,1.1-2.9,1.8-4.6c-0.4,0.7-0.9,1.5-1.3,2.2C760.1,472.9,760,473.8,759.9,474.5z"/>
	<path fill="#FFAF3A" d="M763.2,465.2c1.6-4.6,3.5-10.5,5.8-17.7c-1.1,2.1-2.4,4.2-3.7,6.4c-0.5,1.4-1,2.9-1.7,4.7
		c-0.9,2.7-1.7,5.5-2.4,8c-0.1,0.6-0.2,1.3-0.3,1.9C761.7,467.4,762.5,466.3,763.2,465.2z"/>
	<path fill="#FFAF3A" d="M763.2,465.2c-0.6,1.7-1.1,3.2-1.6,4.6c1.4-2.6,2.7-5.2,3.8-7.8C764.8,463.1,763.9,464.2,763.2,465.2z"/>
	<path fill="#FFAF3A" d="M770.3,442.4C770.3,442.4,770.3,442.4,770.3,442.4c0.2-0.3,0.5-0.6,0.6-0.8c0-0.1,0-0.1,0.1-0.2
		C770.8,441.7,770.5,442.1,770.3,442.4z"/>
	<path fill="#FFAF3A" d="M772.6,439.6c0.1-0.2,0.4-0.5,1.1-1.3l0,0c2.1-2.6,1-1.3,0,0l0,0l-1.5,1.7c0,0,0.1,0.1,0.1,0.1
		C772.3,439.9,772.5,439.7,772.6,439.6z"/>
	<path fill="#FFAF3A" d="M395.8,425.1c15.6-4.5,30.2-7.8,44-9.2c34.9-28.9,130.3-60.6,203.5-83.7l-0.2-0.4
		C551.9,358.6,474.5,392.8,395.8,425.1z"/>
	<path fill="#FFAF3A" d="M182.1,514.4c0.8,0.2,1.3,0.4,2.2,0.6C183.5,514.8,182.9,514.6,182.1,514.4c44.6-52.1,103-94.8,153.5-141.3
		c-41.4,30-82.9,63.4-122.2,100.7c-11.7,12.8-23.9,25.8-35.2,39.3c-7.1-2.1-11.9-3.2-15.1-3.8c0.2-0.1,0.4-0.2,0.6-0.3
		c-0.3,0.1-0.4,0.2-0.6,0.3c-0.3-0.1-0.7-0.1-1-0.2c41-47.2,87.2-85.6,132.2-120.9c-45.8,34.3-93.1,73.3-132.5,120.8
		c-7-1.1-4,1.1-0.7,0.8c-0.1,0.2-0.3,0.3-0.4,0.5c-1.7,0.9-2.3,1.6-2.2,2.6c-0.8,1-1.7,2-2.5,3c0.8-1,1.7-1.9,2.5-2.9
		c0,0.2,0,0.4,0.1,0.7c3.9-1.4,3.1-5.1,19.5-0.6c-15.7,18.8-29.5,38.7-37.3,60.8C152.1,552.5,166.3,532.9,182.1,514.4z M161.4,509.9
		c0.3,0,0.5-0.1,0.7-0.2c-0.3,0.2-0.7,0.3-1,0.5C161.2,510.1,161.3,510,161.4,509.9z"/>
	<path fill="#FFAF3A" d="M288.9,474.2c-0.9-1.3-4.2-2.1-1.8-4.7l-47.4,17.8C256,483.2,272.6,479,288.9,474.2z"/>
	<path fill="#FFAF3A" d="M307,512.7c-1.8,1.1-3.5,4.5-5.6,8.7l42.6-41.6C331.7,490.1,319.2,501.2,307,512.7z"/>
	<path fill="#E54725" d="M356.9,1308.8c-5,4.1-10.2,7.5-16,9.9c0,0,25.2,6.7,64.8,6.3c47.9-0.5,116.9-11.5,188.2-57.6
		c130.1-84.3,133.8-214.4,133.8-214.4s-23.8,11-58.6-12.8c-3.3-2.3-6.2-4.6-9.2-6.9c-75.6,5.6-128.3,72.9-128.3,72.9
		c36-59.5,86.5-83.4,109.2-91.6c-3.3-4.1-6.3-8.3-8.6-12.7c-143.9,65.1-162.9,175.8-162.9,175.8c12.1-133.1,119-182.5,156-195.8
		c-1.5-8.3-1.7-16.9-0.2-26c0,0-135.6-7.3-174.1,117.3c-25.8,83.7-42.6,155.6-66.9,200.7c-4.8,9-10,16.9-15.5,23.6
		C364.8,1301.7,360.9,1305.5,356.9,1308.8z"/>
	<path fill="#054E5C" d="M1426.8,235.8c0,0-24.7-14.8-51.8,4.9c-27.1,19.7-656.4,621.8-698.3,656.4c-42,34.5-22,88.2-4.9,106.1
		c24.7,25.9,83.9,49.4,130.8-4.9c46.9-54.3,604.6-649,634.2-686C1466.3,275.3,1441.6,248.2,1426.8,235.8z M1354.6,324.7
		C1338,346.9,958.6,726.3,849.4,817c-109.2,90.7-140.6,103.6-138.8,92.5c0,0,640.4-610.7,651.5-614.5
		C1373.1,291.4,1371.3,302.5,1354.6,324.7z"/>
</g>
</svg>
